<svg width="32" height="32" viewBox="0 0 100 100" fill="none" xmlns="http://www.w3.org/2000/svg">
  <!-- Gate posts -->
  <rect x="15" y="30" width="8" height="50" rx="2" fill="#4A7C59" />
  <rect x="77" y="30" width="8" height="50" rx="2" fill="#4A7C59" />
  
  <!-- Gate bars -->
  <rect x="15" y="35" width="70" height="6" rx="2" fill="#4A7C59" />
  <rect x="15" y="52" width="70" height="6" rx="2" fill="#4A7C59" />
  
  <!-- Leaf emerging from gate - organic element -->
  <path d="M 50 20 Q 60 25 65 35 Q 63 30 60 28 Q 55 23 50 20 Z" fill="#4A7C59" opacity="0.9" />
  <path d="M 50 20 Q 40 25 35 35 Q 37 30 40 28 Q 45 23 50 20 Z" fill="#4A7C59" opacity="0.7" />
  
  <!-- Central stem -->
  <rect x="48" y="18" width="4" height="25" rx="2" fill="#4A7C59" />
  
  <!-- Small decorative dots (representing freshness/produce) -->
  <circle cx="50" cy="70" r="3" fill="#4A7C59" opacity="0.6" />
  <circle cx="42" cy="73" r="2.5" fill="#4A7C59" opacity="0.5" />
  <circle cx="58" cy="73" r="2.5" fill="#4A7C59" opacity="0.5" />
</svg>
